<?xml version="1.0" encoding="UTF-8"?>
<svg xmlns="http://www.w3.org/2000/svg" width="251" height="252" viewBox="0 0 251 252" fill="none">
  <g clip-path="url(#clip0_212_4)">
    <rect width="251" height="252" fill="white"></rect>
    <g clip-path="url(#clip1_212_4)">
      <path d="M120.93 45H91.2598V75.3H120.93V45Z" fill="#CDCE00"></path>
      <path d="M192.85 82.33L177.45 116.22V82.33H155.05V134.35L131.5 82.33H79.73L56.41 136.15V82.33H34V151.86H72.01L94.86 100.34V151.86H117.27V100.39L140.55 151.86H177.45V117.2L192.85 151.86H216.36L201.4 116.71L216.36 82.33H192.85Z" fill="#00795D"></path>
      <path d="M38.7696 161.46H34.1396V181.86H38.7696V161.46Z" fill="#00795D"></path>
      <path d="M45.0703 181.87V161.47H50.4503L54.6903 168.94C55.9509 171.199 57.0633 173.537 58.0203 175.94H58.1103C57.8214 173.106 57.6912 170.258 57.7203 167.41V161.48H61.9603V181.88H57.1103L52.7503 174.01C51.4437 171.657 50.2621 169.237 49.2103 166.76H49.1203C49.2403 169.46 49.3003 172.33 49.3003 175.66V181.81L45.0703 181.87Z" fill="#00795D"></path>
      <path d="M67.6197 177.11C69.2032 177.921 70.9511 178.358 72.7297 178.39C74.8497 178.39 75.9697 177.51 75.9697 176.18C75.9697 174.85 74.9697 174.18 72.5497 173.3C69.1597 172.12 66.9497 170.24 66.9497 167.3C66.9497 163.82 69.8597 161.15 74.6697 161.15C76.4576 161.111 78.2334 161.452 79.8797 162.15L78.8797 165.88C77.5523 165.222 76.091 164.88 74.6097 164.88C72.6097 164.88 71.6097 165.78 71.6097 166.88C71.6097 168.19 72.7597 168.76 75.3997 169.76C78.9997 171.09 80.6897 172.97 80.6897 175.84C80.6897 179.26 78.0597 182.2 72.4597 182.2C70.4624 182.213 68.4875 181.779 66.6797 180.93L67.6197 177.11Z" fill="#00795D"></path>
      <path d="M89.2495 165.34H83.7695V161.46H99.4495V165.34H93.8795V181.86H89.2495V165.34Z" fill="#00795D"></path>
      <path d="M111.17 173.18L109.9 168.85C109.54 167.64 109.17 166.13 108.9 164.92H108.84C108.54 166.13 108.24 167.67 107.9 168.85L106.69 173.18H111.17ZM106 176.63L104.54 181.87H99.7598L106 161.47H112.05L118.38 181.87H113.38L111.81 176.63H106Z" fill="#00795D"></path>
      <path d="M122.61 161.46H127.24V177.99H135.35V181.86H122.61V161.46Z" fill="#00795D"></path>
      <path d="M139.59 161.46H144.22V177.99H152.33V181.86H139.59V161.46Z" fill="#00795D"></path>
      <path d="M166.68 173.18L165.37 168.85C165.01 167.64 164.65 166.13 164.37 164.92C164.07 166.13 163.77 167.67 163.43 168.85L162.22 173.18H166.68ZM161.51 176.63L160.05 181.87H155.27L161.51 161.47H167.56L173.89 181.87H168.89L167.37 176.63H161.51Z" fill="#00795D"></path>
      <path d="M179.54 165.34H174.06V161.46H189.74V165.34H184.17V181.86H179.54V165.34Z" fill="#00795D"></path>
      <path d="M198.34 161.46H193.71V181.86H198.34V161.46Z" fill="#00795D"></path>
      <path d="M216.35 173.24H208.84V178.08H217.23V181.86H204.21V161.46H216.8V165.25H208.84V169.48H216.35V173.24Z" fill="#00795D"></path>
      <path d="M96.2096 206.66C94.4986 207.292 92.6932 207.63 90.8696 207.66C89.6826 207.775 88.4849 207.628 87.3607 207.23C86.2366 206.832 85.2133 206.193 84.363 205.357C83.5126 204.521 82.8558 203.508 82.4389 202.391C82.0219 201.274 81.8549 200.079 81.9496 198.89C81.9496 193.7 85.5296 189.89 91.3596 189.89C92.8459 189.855 94.3236 190.127 95.6996 190.69L95.1596 192.52C93.9463 191.992 92.6323 191.736 91.3096 191.77C87.0796 191.77 84.3096 194.41 84.3096 198.77C84.3096 203.13 86.9696 205.77 91.0196 205.77C92.0408 205.829 93.0631 205.673 94.0196 205.31V200.12H90.4896V198.32H96.2096V206.66Z" fill="#00795D"></path>
      <path d="M103.37 198.19H105.67C108.07 198.19 109.59 196.88 109.59 194.89C109.59 192.65 107.97 191.67 105.59 191.64C104.844 191.617 104.098 191.687 103.37 191.85V198.19ZM101.13 190.27C102.553 190.018 103.995 189.898 105.44 189.91C107.84 189.91 109.39 190.35 110.44 191.33C110.89 191.751 111.245 192.263 111.481 192.832C111.717 193.401 111.829 194.014 111.81 194.63C111.822 195.626 111.508 196.6 110.916 197.401C110.324 198.203 109.486 198.789 108.53 199.07V199.15C109.87 199.61 110.67 200.85 111.08 202.66C111.382 204.288 111.834 205.885 112.43 207.43H110.1C109.589 206.085 109.2 204.696 108.94 203.28C108.43 200.88 107.5 199.97 105.46 199.9H103.37V207.43H101.13V190.27Z" fill="#00795D"></path>
      <path d="M117.5 198.84C117.5 202.55 119.5 205.84 123.04 205.84C126.58 205.84 128.61 202.57 128.61 198.62C128.61 195.16 126.81 191.55 123.07 191.55C119.33 191.55 117.5 194.98 117.5 198.8M130.99 198.52C130.99 204.52 127.35 207.67 122.91 207.67C118.32 207.67 115.1 204.11 115.1 198.85C115.1 193.33 118.53 189.72 123.17 189.72C127.81 189.72 130.99 193.36 130.99 198.52Z" fill="#00795D"></path>
      <path d="M134.98 190.04V207.42H144.76V205.54H137.23V199.27H143.98V197.41H137.23V191.92H144.37V190.04H134.98Z" fill="#00795D"></path>
      <path d="M151.55 198.63C152.157 198.767 152.778 198.827 153.4 198.81C156.11 198.81 157.76 197.5 157.76 195.1C157.76 192.7 156.14 191.69 153.66 191.69C152.952 191.671 152.244 191.732 151.55 191.87V198.63ZM149.3 190.25C150.725 190.018 152.166 189.904 153.61 189.91C155.359 189.779 157.096 190.295 158.49 191.36C158.993 191.819 159.39 192.383 159.652 193.012C159.915 193.641 160.037 194.319 160.01 195C160.048 195.684 159.95 196.37 159.72 197.015C159.49 197.661 159.133 198.254 158.67 198.76C157.957 199.419 157.118 199.928 156.204 200.256C155.29 200.585 154.319 200.725 153.35 200.67C152.746 200.689 152.141 200.635 151.55 200.51V207.51H149.3V190.25Z" fill="#00795D"></path>
    </g>
  </g>
  <defs>
    <clipPath id="clip0_212_4">
      <rect width="251" height="252" fill="white"></rect>
    </clipPath>
    <clipPath id="clip1_212_4">
      <rect width="310.02" height="162.71" fill="white" transform="translate(34 45)"></rect>
    </clipPath>
  </defs>
</svg>
